{
  "accessors": [
    {
      "bufferView": 2,
      "componentType": 5126,
      "count": 3311,
      "max": [
        0.9872310161590576,
        0.70710688829422,
        0.9872307181358337
      ],
      "min": [
        -0.9872304201126099,
        -0.9975767135620117,
        -0.9872304201126099
      ],
      "type": "VEC3"
    },
    {
      "bufferView": 2,
      "byteOffset": 39732,
      "componentType": 5126,
      "count": 3311,
      "max": [
        1.0,
        1.0,
        1.0
      ],
      "min": [
        -1.0,
        -1.0,
        -1.0
      ],
      "type": "VEC3"
    },
    {
      "bufferView": 1,
      "componentType": 5126,
      "count": 3311,
      "max": [
        1.0000001192092896,
        0.7500001788139343
      ],
      "min": [
        0.0,
        0.0
      ],
      "type": "VEC2"
    },
    {
      "bufferView": 0,
      "componentType": 5125,
      "count": 18432,
      "type": "SCALAR"
    },
    {
      "bufferView": 2,
      "byteOffset": 79464,
      "componentType": 5126,
      "count": 520,
      "max": [
        2.017836570739746,
        32.94206619262695,
        5.616385459899902
      ],
      "min": [
        -2.4266929626464844,
        -1.0,
        -5.96440315246582
      ],
      "type": "VEC3"
    },
    {
      "bufferView": 2,
      "byteOffset": 85704,
      "componentType": 5126,
      "count": 520,
      "max": [
        0.8450114727020264,
        0.9789289236068726,
        0.98773193359375
      ],
      "min": [
        -0.8450122475624084,
        -0.978928804397583,
        -0.98773193359375
      ],
      "type": "VEC3"
    },
    {
      "bufferView": 1,
      "byteOffset": 26488,
      "componentType": 5126,
      "count": 520,
      "max": [
        1.0,
        1.0
      ],
      "min": [
        0.0,
        0.01000000536441803
      ],
      "type": "VEC2"
    },
    {
      "bufferView": 0,
      "byteOffset": 73728,
      "componentType": 5125,
      "count": 1488,
      "type": "SCALAR"
    },
    {
      "bufferView": 2,
      "byteOffset": 91944,
      "componentType": 5126,
      "count": 834,
      "max": [
        0.6718750596046448,
        2.942819321560819e-08,
        0.6666667461395264
      ],
      "min": [
        0.00135669088922441,
        -0.2199999988079071,
        -0.6666667461395264
      ],
      "type": "VEC3"
    },
    {
      "bufferView": 2,
      "byteOffset": 101952,
      "componentType": 5126,
      "count": 834,
      "max": [
        0.7346253991127014,
        1.0,
        0.7326507568359375
      ],
      "min": [
        -0.7087314128875732,
        -1.0,
        -0.7326507568359375
      ],
      "type": "VEC3"
    },
    {
      "bufferView": 1,
      "byteOffset": 30648,
      "componentType": 5126,
      "count": 834,
      "max": [
        0.0,
        0.0
      ],
      "min": [
        0.0,
        0.0
      ],
      "type": "VEC2"
    },
    {
      "bufferView": 0,
      "byteOffset": 79680,
      "componentType": 5125,
      "count": 4992,
      "type": "SCALAR"
    },
    {
      "bufferView": 2,
      "byteOffset": 111960,
      "componentType": 5126,
      "count": 559,
      "max": [
        0.9999997019767761,
        1.0,
        0.9999994039535522
      ],
      "min": [
        -0.9999990463256836,
        -1.0,
        -0.9999987483024597
      ],
      "type": "VEC3"
    },
    {
      "bufferView": 2,
      "byteOffset": 118668,
      "componentType": 5126,
      "count": 559,
      "max": [
        1.0,
        1.0,
        1.0
      ],
      "min": [
        -1.0,
        -1.0,
        -1.0
      ],
      "type": "VEC3"
    },
    {
      "bufferView": 1,
      "byteOffset": 37320,
      "componentType": 5126,
      "count": 559,
      "max": [
        1.0000001192092896,
        1.0
      ],
      "min": [
        0.0,
        0.0
      ],
      "type": "VEC2"
    },
    {
      "bufferView": 0,
      "byteOffset": 99648,
      "componentType": 5125,
      "count": 2880,
      "type": "SCALAR"
    },
    {
      "bufferView": 2,
      "byteOffset": 125376,
      "componentType": 5126,
      "count": 1414,
      "max": [
        1.0437942743301392,
        1.0,
        1.109305739402771
      ],
      "min": [
        -1.0,
        -15.542682647705078,
        -1.0
      ],
      "type": "VEC3"
    },
    {
      "bufferView": 2,
      "byteOffset": 142344,
      "componentType": 5126,
      "count": 1414,
      "max": [
        1.0,
        1.0,
        1.0
      ],
      "min": [
        -1.0,
        -0.9914616346359253,
        -1.0
      ],
      "type": "VEC3"
    },
    {
      "bufferView": 1,
      "byteOffset": 41792,
      "componentType": 5126,
      "count": 1414,
      "max": [
        1.0,
        1.0000001192092896
      ],
      "min": [
        0.0,
        0.01000000536441803
      ],
      "type": "VEC2"
    },
    {
      "bufferView": 0,
      "byteOffset": 111168,
      "componentType": 5125,
      "count": 6516,
      "type": "SCALAR"
    },
    {
      "bufferView": 2,
      "byteOffset": 159312,
      "componentType": 5126,
      "count": 192,
      "max": [
        0.8132837414741516,
        4.788221836090088,
        0.8742803335189819
      ],
      "min": [
        -0.7725595831871033,
        -19.195905685424805,
        -0.7725595831871033
      ],
      "type": "VEC3"
    },
    {
      "bufferView": 2,
      "byteOffset": 161616,
      "componentType": 5126,
      "count": 192,
      "max": [
        0.9828649163246155,
        0.1733686923980713,
        0.9836291074752808
      ],
      "min": [
        -0.9804931879043579,
        -0.19133210182189941,
        -0.9801146984100342
      ],
      "type": "VEC3"
    },
    {
      "bufferView": 1,
      "byteOffset": 53104,
      "componentType": 5126,
      "count": 192,
      "max": [
        0.7784960269927979,
        1.0000001192092896
      ],
      "min": [
        0.19025397300720215,
        0.999999463558197
      ],
      "type": "VEC2"
    },
    {
      "bufferView": 0,
      "byteOffset": 137232,
      "componentType": 5125,
      "count": 192,
      "type": "SCALAR"
    }
  ],
  "asset": {
    "extras": {
      "author": "Elvis Thermo (https://sketchfab.com/elvis.thermo)",
      "license": "CC-BY-4.0 (http://creativecommons.org/licenses/by/4.0/)",
      "source": "https://sketchfab.com/3d-models/robo-baby-head-bd09a0c8aa4f4f5fbc70612de0157aa2",
      "title": "ROBO BABY HEAD"
    },
    "generator": "Sketchfab-14.38.0",
    "version": "2.0"
  },
  "bufferViews": [
    {
      "buffer": 0,
      "byteLength": 138000,
      "name": "floatBufferViews",
      "target": 34963
    },
    {
      "buffer": 0,
      "byteLength": 54640,
      "byteOffset": 138000,
      "byteStride": 8,
      "name": "floatBufferViews",
      "target": 34962
    },
    {
      "buffer": 0,
      "byteLength": 163920,
      "byteOffset": 192640,
      "byteStride": 12,
      "name": "floatBufferViews",
      "target": 34962
    }
  ],
  "buffers": [
    {
      "byteLength": 356560,
      "uri": "scene.bin"
    }
  ],
  "materials": [
    {
      "doubleSided": true,
      "name": "Material.002",
      "pbrMetallicRoughness": {
        "baseColorFactor": [
          0.15429299999999996,
          0.21692899999999987,
          0.7999999999999999,
          1.0
        ],
        "metallicFactor": 0.513636,
        "roughnessFactor": 0.368182
      }
    },
    {
      "doubleSided": true,
      "emissiveFactor": [
        1.0,
        1.0,
        1.0
      ],
      "name": "Material.006"
    },
    {
      "doubleSided": true,
      "emissiveFactor": [
        1.0,
        1.0,
        1.0
      ],
      "name": "Material.004",
      "pbrMetallicRoughness": {
        "baseColorFactor": [
          0.0,
          0.0,
          0.0,
          1.0
        ]
      }
    },
    {
      "doubleSided": true,
      "name": "Material.008",
      "pbrMetallicRoughness": {
        "baseColorFactor": [
          0.0,
          0.0,
          0.0,
          1.0
        ],
        "roughnessFactor": 0.0
      }
    }
  ],
  "meshes": [
    {
      "name": "Object_0",
      "primitives": [
        {
          "attributes": {
            "NORMAL": 1,
            "POSITION": 0,
            "TEXCOORD_0": 2
          },
          "indices": 3,
          "material": 0,
          "mode": 4
        }
      ]
    },
    {
      "name": "Object_1",
      "primitives": [
        {
          "attributes": {
            "NORMAL": 5,
            "POSITION": 4,
            "TEXCOORD_0": 6
          },
          "indices": 7,
          "material": 1,
          "mode": 4
        }
      ]
    },
    {
      "name": "Object_2",
      "primitives": [
        {
          "attributes": {
            "NORMAL": 9,
            "POSITION": 8,
            "TEXCOORD_0": 10
          },
          "indices": 11,
          "material": 2,
          "mode": 4
        }
      ]
    },
    {
      "name": "Object_3",
      "primitives": [
        {
          "attributes": {
            "NORMAL": 13,
            "POSITION": 12,
            "TEXCOORD_0": 14
          },
          "indices": 15,
          "material": 3,
          "mode": 4
        }
      ]
    },
    {
      "name": "Object_4",
      "primitives": [
        {
          "attributes": {
            "NORMAL": 17,
            "POSITION": 16,
            "TEXCOORD_0": 18
          },
          "indices": 19,
          "material": 0,
          "mode": 4
        }
      ]
    },
    {
      "name": "Object_5",
      "primitives": [
        {
          "attributes": {
            "NORMAL": 21,
            "POSITION": 20,
            "TEXCOORD_0": 22
          },
          "indices": 23,
          "material": 3,
          "mode": 4
        }
      ]
    }
  ],
  "nodes": [
    {
      "children": [
        1
      ],
      "matrix": [
        1.0,
        0.0,
        0.0,
        0.0,
        0.0,
        2.220446049250313e-16,
        -1.0,
        0.0,
        0.0,
        1.0,
        2.220446049250313e-16,
        0.0,
        0.0,
        0.0,
        0.0,
        1.0
      ],
      "name": "Sketchfab_model"
    },
    {
      "children": [
        2
      ],
      "name": "root"
    },
    {
      "children": [
        3,
        5,
        7,
        9,
        11,
        13
      ],
      "matrix": [
        1.0,
        0.0,
        0.0,
        0.0,
        0.0,
        2.220446049250313e-16,
        1.0,
        0.0,
        0.0,
        -1.0,
        2.220446049250313e-16,
        0.0,
        0.0,
        0.0,
        0.0,
        1.0
      ],
      "name": "GLTF_SceneRootNode"
    },
    {
      "children": [
        4
      ],
      "matrix": [
        -0.0021977039494534,
        -0.9999975850457592,
        -0.0,
        0.0,
        0.9999975850457592,
        -0.0021977039494534,
        0.0,
        0.0,
        0.0,
        -0.0,
        1.0,
        0.0,
        0.0,
        0.0,
        0.0,
        1.0
      ],
      "name": "Sphere_2"
    },
    {
      "mesh": 0,
      "name": "Object_4"
    },
    {
      "children": [
        6
      ],
      "matrix": [
        0.00837236694541409,
        0.09884690510697543,
        -0.01890742448880139,
        0.0,
        -0.0520321858516172,
        0.0014326941995064114,
        -0.015550249348341429,
        0.0,
        -0.027878925237540313,
        0.020567316835008488,
        0.09517970173191007,
        0.0,
        0.8252602219581604,
        0.0,
        0.2605237662792206,
        1.0
      ],
      "name": "Cylinder.001_3"
    },
    {
      "mesh": 1,
      "name": "Object_6"
    },
    {
      "children": [
        8
      ],
      "matrix": [
        -0.04714312479237799,
        -0.14528062619709584,
        -0.0,
        0.0,
        0.14528062619709584,
        -0.04714312479237799,
        0.0,
        0.0,
        0.0,
        -0.0,
        0.15273812413215637,
        0.0,
        0.9217410087585449,
        -0.15131844580173492,
        0.0,
        1.0
      ],
      "name": "Circle_5"
    },
    {
      "mesh": 2,
      "name": "Object_8"
    },
    {
      "children": [
        10
      ],
      "matrix": [
        0.9232169985771179,
        0.0,
        0.0,
        0.0,
        0.0,
        0.9232169985771179,
        0.0,
        0.0,
        0.0,
        0.0,
        0.9232169985771179,
        0.0,
        0.0,
        0.0,
        0.0,
        1.0
      ],
      "name": "Sphere.001_6"
    },
    {
      "mesh": 3,
      "name": "Object_10"
    },
    {
      "children": [
        12
      ],
      "matrix": [
        -6.627274777722135e-05,
        -0.40553752720213604,
        -0.0032739778759704515,
        -0.0,
        0.0027202235474563506,
        -0.0010854253682278175,
        0.13439322432015505,
        -0.0,
        0.40540560343800314,
        -4.883355576939858e-09,
        -0.008205725248590116,
        -0.0,
        0.0,
        -0.10221996158361435,
        0.9689130187034607,
        1.0
      ],
      "name": "Cylinder_7"
    },
    {
      "mesh": 4,
      "name": "Object_12"
    },
    {
      "children": [
        14
      ],
      "matrix": [
        -6.627274777722135e-05,
        -0.40553752720213604,
        -0.0032739778759704515,
        -0.0,
        0.0027202235474563506,
        -0.0010854253682278175,
        0.13439322432015505,
        -0.0,
        0.40540560343800314,
        -4.883355576939858e-09,
        -0.008205725248590116,
        -0.0,
        0.0,
        -0.10221996158361435,
        0.9689130187034607,
        1.0
      ],
      "name": "Cylinder.003_8"
    },
    {
      "mesh": 5,
      "name": "Object_14"
    }
  ],
  "scene": 0,
  "scenes": [
    {
      "name": "Sketchfab_Scene",
      "nodes": [
        0
      ]
    }
  ]
}
